<?xml version="1.0" encoding="UTF-8"?>
<svg version="1.1" xmlns="http://www.w3.org/2000/svg" width="2122" height="2122">
<path d="M0 0 C700.26 0 1400.52 0 2122 0 C2122 700.26 2122 1400.52 2122 2122 C1421.74 2122 721.48 2122 0 2122 C0 1421.74 0 721.48 0 0 Z " fill="#FE0917" transform="translate(0,0)"/>
<path d="M0 0 C700.26 0 1400.52 0 2122 0 C2122 700.26 2122 1400.52 2122 2122 C1421.74 2122 721.48 2122 0 2122 C0 1421.74 0 721.48 0 0 Z M485 180 C485 203.1 485 226.2 485 250 C434.51 250 384.02 250 332 250 C332 273.1 332 296.2 332 320 C306.92 320 281.84 320 256 320 C256 343.43 256 366.86 256 391 C230.59 391 205.18 391 179 391 C179 437.53 179 484.06 179 532 C153.92 532 128.84 532 103 532 C103 694.69 103 857.38 103 1025 C128.08 1025 153.16 1025 179 1025 C179 1071.86 179 1118.72 179 1167 C204.41 1167 229.82 1167 256 1167 C256 1213.53 256 1260.06 256 1308 C281.08 1308 306.16 1308 332 1308 C332 1354.53 332 1401.06 332 1449 C357.41 1449 382.82 1449 409 1449 C409 1472.1 409 1495.2 409 1519 C434.41 1519 459.82 1519 486 1519 C486 1542.1 486 1565.2 486 1589 C511.08 1589 536.16 1589 562 1589 C562 1612.43 562 1635.86 562 1660 C587.41 1660 612.82 1660 639 1660 C639 1683.1 639 1706.2 639 1730 C664.08 1730 689.16 1730 715 1730 C715 1753.43 715 1776.86 715 1801 C765.82 1801 816.64 1801 869 1801 C869 1824.1 869 1847.2 869 1871 C894.41 1871 919.82 1871 946 1871 C946 1894.1 946 1917.2 946 1941 C1021.9 1941 1097.8 1941 1176 1941 C1176 1917.9 1176 1894.8 1176 1871 C1201.41 1871 1226.82 1871 1253 1871 C1253 1847.9 1253 1824.8 1253 1801 C1303.49 1801 1353.98 1801 1406 1801 C1406 1777.57 1406 1754.14 1406 1730 C1431.41 1730 1456.82 1730 1483 1730 C1483 1706.9 1483 1683.8 1483 1660 C1508.08 1660 1533.16 1660 1559 1660 C1559 1636.57 1559 1613.14 1559 1589 C1584.41 1589 1609.82 1589 1636 1589 C1636 1565.9 1636 1542.8 1636 1519 C1661.41 1519 1686.82 1519 1713 1519 C1713 1495.9 1713 1472.8 1713 1449 C1738.08 1449 1763.16 1449 1789 1449 C1789 1402.47 1789 1355.94 1789 1308 C1814.41 1308 1839.82 1308 1866 1308 C1866 1284.57 1866 1261.14 1866 1237 C1891.08 1237 1916.16 1237 1942 1237 C1942 1167.37 1942 1097.74 1942 1026 C1967.41 1026 1992.82 1026 2019 1026 C2019 862.98 2019 699.96 2019 532 C1993.59 532 1968.18 532 1942 532 C1942 485.47 1942 438.94 1942 391 C1916.92 391 1891.84 391 1866 391 C1866 367.57 1866 344.14 1866 320 C1840.59 320 1815.18 320 1789 320 C1789 296.9 1789 273.8 1789 250 C1763.92 250 1738.84 250 1713 250 C1713 226.9 1713 203.8 1713 180 C1560.87 180 1408.74 180 1252 180 C1252 203.1 1252 226.2 1252 250 C1226.59 250 1201.18 250 1175 250 C1175 273.1 1175 296.2 1175 320 C1149.92 320 1124.84 320 1099 320 C1099 343.43 1099 366.86 1099 391 C1073.92 391 1048.84 391 1023 391 C1023 367.9 1023 344.8 1023 321 C997.59 321 972.18 321 946 321 C946 297.57 946 274.14 946 250 C920.92 250 895.84 250 870 250 C870 226.9 870 203.8 870 180 C742.95 180 615.9 180 485 180 Z " fill="#FEFEFE" transform="translate(0,0)"/>
<path d="M0 0 C127.05 0 254.1 0 385 0 C385 23.1 385 46.2 385 70 C410.08 70 435.16 70 461 70 C461 93.43 461 116.86 461 141 C486.41 141 511.82 141 538 141 C538 164.1 538 187.2 538 211 C563.08 211 588.16 211 614 211 C614 187.57 614 164.14 614 140 C639.08 140 664.16 140 690 140 C690 116.9 690 93.8 690 70 C715.41 70 740.82 70 767 70 C767 46.9 767 23.8 767 0 C919.13 0 1071.26 0 1228 0 C1228 23.1 1228 46.2 1228 70 C1253.08 70 1278.16 70 1304 70 C1304 93.1 1304 116.2 1304 140 C1329.41 140 1354.82 140 1381 140 C1381 163.43 1381 186.86 1381 211 C1406.08 211 1431.16 211 1457 211 C1457 257.53 1457 304.06 1457 352 C1482.41 352 1507.82 352 1534 352 C1534 515.02 1534 678.04 1534 846 C1508.59 846 1483.18 846 1457 846 C1457 915.63 1457 985.26 1457 1057 C1431.92 1057 1406.84 1057 1381 1057 C1381 1080.43 1381 1103.86 1381 1128 C1355.59 1128 1330.18 1128 1304 1128 C1304 1174.53 1304 1221.06 1304 1269 C1278.92 1269 1253.84 1269 1228 1269 C1228 1292.1 1228 1315.2 1228 1339 C1202.59 1339 1177.18 1339 1151 1339 C1151 1362.1 1151 1385.2 1151 1409 C1125.59 1409 1100.18 1409 1074 1409 C1074 1432.43 1074 1455.86 1074 1480 C1048.92 1480 1023.84 1480 998 1480 C998 1503.1 998 1526.2 998 1550 C972.59 1550 947.18 1550 921 1550 C921 1573.43 921 1596.86 921 1621 C870.51 1621 820.02 1621 768 1621 C768 1644.1 768 1667.2 768 1691 C742.59 1691 717.18 1691 691 1691 C691 1714.1 691 1737.2 691 1761 C615.1 1761 539.2 1761 461 1761 C461 1737.9 461 1714.8 461 1691 C435.59 1691 410.18 1691 384 1691 C384 1667.9 384 1644.8 384 1621 C333.18 1621 282.36 1621 230 1621 C230 1597.57 230 1574.14 230 1550 C204.92 1550 179.84 1550 154 1550 C154 1526.9 154 1503.8 154 1480 C128.59 1480 103.18 1480 77 1480 C77 1456.57 77 1433.14 77 1409 C51.92 1409 26.84 1409 1 1409 C1 1385.9 1 1362.8 1 1339 C-24.41 1339 -49.82 1339 -76 1339 C-76 1315.9 -76 1292.8 -76 1269 C-101.41 1269 -126.82 1269 -153 1269 C-153 1222.47 -153 1175.94 -153 1128 C-178.08 1128 -203.16 1128 -229 1128 C-229 1081.47 -229 1034.94 -229 987 C-254.41 987 -279.82 987 -306 987 C-306 940.14 -306 893.28 -306 845 C-331.08 845 -356.16 845 -382 845 C-382 682.31 -382 519.62 -382 352 C-356.92 352 -331.84 352 -306 352 C-306 305.47 -306 258.94 -306 211 C-280.59 211 -255.18 211 -229 211 C-229 187.57 -229 164.14 -229 140 C-203.92 140 -178.84 140 -153 140 C-153 116.9 -153 93.8 -153 70 C-102.51 70 -52.02 70 0 70 C0 46.9 0 23.8 0 0 Z M1 71 C1 94.1 1 117.2 1 141 C-49.49 141 -99.98 141 -152 141 C-152 187.53 -152 234.06 -152 282 C-177.41 282 -202.82 282 -229 282 C-229 328.53 -229 375.06 -229 423 C-254.41 423 -279.82 423 -306 423 C-306 539.16 -306 655.32 -306 775 C-280.59 775 -255.18 775 -229 775 C-229 821.53 -229 868.06 -229 916 C-203.59 916 -178.18 916 -152 916 C-152 939.1 -152 962.2 -152 986 C-126.59 986 -101.18 986 -75 986 C-75 1009.43 -75 1032.86 -75 1057 C-49.92 1057 -24.84 1057 1 1057 C1 1080.1 1 1103.2 1 1127 C26.41 1127 51.82 1127 78 1127 C78 1150.1 78 1173.2 78 1197 C128.49 1197 178.98 1197 231 1197 C231 1220.43 231 1243.86 231 1268 C407.88 1268 584.76 1268 767 1268 C767 1244.57 767 1221.14 767 1197 C817.49 1197 867.98 1197 920 1197 C920 1173.9 920 1150.8 920 1127 C945.41 1127 970.82 1127 997 1127 C997 1103.9 997 1080.8 997 1057 C1022.41 1057 1047.82 1057 1074 1057 C1074 1033.57 1074 1010.14 1074 986 C1099.08 986 1124.16 986 1150 986 C1150 939.47 1150 892.94 1150 845 C1175.41 845 1200.82 845 1227 845 C1227 821.9 1227 798.8 1227 775 C1252.08 775 1277.16 775 1303 775 C1303 705.04 1303 635.08 1303 563 C1328.41 563 1353.82 563 1380 563 C1380 470.27 1380 377.54 1380 282 C1354.59 282 1329.18 282 1303 282 C1303 235.47 1303 188.94 1303 141 C1252.51 141 1202.02 141 1150 141 C1150 117.9 1150 94.8 1150 71 C1049.02 71 948.04 71 844 71 C844 94.1 844 117.2 844 141 C793.51 141 743.02 141 691 141 C691 187.53 691 234.06 691 282 C640.18 282 589.36 282 537 282 C537 258.57 537 235.14 537 211 C511.59 211 486.18 211 460 211 C460 187.9 460 164.8 460 141 C409.51 141 359.02 141 307 141 C307 117.9 307 94.8 307 71 C206.02 71 105.04 71 1 71 Z " fill="#C90101" transform="translate(485,180)"/>
<path d="M0 0 C127.05 0 254.1 0 385 0 C385 23.1 385 46.2 385 70 C410.08 70 435.16 70 461 70 C461 93.43 461 116.86 461 141 C486.41 141 511.82 141 538 141 C538 164.1 538 187.2 538 211 C563.08 211 588.16 211 614 211 C614 187.57 614 164.14 614 140 C639.08 140 664.16 140 690 140 C690 116.9 690 93.8 690 70 C715.41 70 740.82 70 767 70 C767 46.9 767 23.8 767 0 C919.13 0 1071.26 0 1228 0 C1228 23.1 1228 46.2 1228 70 C1253.08 70 1278.16 70 1304 70 C1304 93.1 1304 116.2 1304 140 C1329.41 140 1354.82 140 1381 140 C1381 163.43 1381 186.86 1381 211 C1355.59 211 1330.18 211 1304 211 C1304 187.9 1304 164.8 1304 141 C1253.18 141 1202.36 141 1150 141 C1150 117.9 1150 94.8 1150 71 C1049.02 71 948.04 71 844 71 C844 94.1 844 117.2 844 141 C793.51 141 743.02 141 691 141 C691 187.53 691 234.06 691 282 C640.18 282 589.36 282 537 282 C537 258.57 537 235.14 537 211 C511.59 211 486.18 211 460 211 C460 187.9 460 164.8 460 141 C409.51 141 359.02 141 307 141 C307 117.9 307 94.8 307 71 C206.02 71 105.04 71 1 71 C1 94.1 1 117.2 1 141 C-49.49 141 -99.98 141 -152 141 C-152 187.53 -152 234.06 -152 282 C-177.41 282 -202.82 282 -229 282 C-229 328.53 -229 375.06 -229 423 C-254.41 423 -279.82 423 -306 423 C-306 539.16 -306 655.32 -306 775 C-280.59 775 -255.18 775 -229 775 C-229 844.96 -229 914.92 -229 987 C-254.41 987 -279.82 987 -306 987 C-306 940.14 -306 893.28 -306 845 C-331.08 845 -356.16 845 -382 845 C-382 682.31 -382 519.62 -382 352 C-356.92 352 -331.84 352 -306 352 C-306 305.47 -306 258.94 -306 211 C-280.59 211 -255.18 211 -229 211 C-229 187.57 -229 164.14 -229 140 C-203.92 140 -178.84 140 -153 140 C-153 116.9 -153 93.8 -153 70 C-102.51 70 -52.02 70 0 70 C0 46.9 0 23.8 0 0 Z " fill="#101116" transform="translate(485,180)"/>
<path d="M0 0 C25.08 0 50.16 0 76 0 C76 69.63 76 139.26 76 211 C50.92 211 25.84 211 0 211 C0 234.43 0 257.86 0 282 C-25.41 282 -50.82 282 -77 282 C-77 328.53 -77 375.06 -77 423 C-102.08 423 -127.16 423 -153 423 C-153 446.1 -153 469.2 -153 493 C-178.41 493 -203.82 493 -230 493 C-230 516.1 -230 539.2 -230 563 C-255.41 563 -280.82 563 -307 563 C-307 586.43 -307 609.86 -307 634 C-332.08 634 -357.16 634 -383 634 C-383 657.1 -383 680.2 -383 704 C-408.41 704 -433.82 704 -460 704 C-460 727.43 -460 750.86 -460 775 C-510.49 775 -560.98 775 -613 775 C-613 798.1 -613 821.2 -613 845 C-638.41 845 -663.82 845 -690 845 C-690 868.1 -690 891.2 -690 915 C-765.9 915 -841.8 915 -920 915 C-920 891.9 -920 868.8 -920 845 C-945.41 845 -970.82 845 -997 845 C-997 821.9 -997 798.8 -997 775 C-946.51 775 -896.02 775 -844 775 C-844 798.1 -844 821.2 -844 845 C-818.59 845 -793.18 845 -767 845 C-767 821.9 -767 798.8 -767 775 C-716.51 775 -666.02 775 -614 775 C-614 751.57 -614 728.14 -614 704 C-588.59 704 -563.18 704 -537 704 C-537 680.9 -537 657.8 -537 634 C-511.92 633.67 -486.84 633.34 -461 633 C-460.67 609.9 -460.34 586.8 -460 563 C-434.92 563 -409.84 563 -384 563 C-384 539.9 -384 516.8 -384 493 C-358.59 493 -333.18 493 -307 493 C-307 469.57 -307 446.14 -307 422 C-281.59 422 -256.18 422 -230 422 C-230 398.9 -230 375.8 -230 352 C-204.92 352 -179.84 352 -154 352 C-154 328.57 -154 305.14 -154 281 C-128.59 281 -103.18 281 -77 281 C-77 234.8 -77 188.6 -77 141 C-51.92 140.67 -26.84 140.34 -1 140 C-0.67 93.8 -0.34 47.6 0 0 Z " fill="#0F1116" transform="translate(1866,1026)"/>
<path d="M0 0 C50.49 0 100.98 0 153 0 C153 23.43 153 46.86 153 71 C178.41 71 203.82 71 230 71 C230 94.43 230 117.86 230 142 C179.51 142 129.02 142 77 142 C77 188.2 77 234.4 77 282 C51.59 282 26.18 282 0 282 C0 305.43 0 328.86 0 353 C-25.08 353 -50.16 353 -76 353 C-76 376.1 -76 399.2 -76 423 C-101.74 423 -127.48 423 -154 423 C-154 353.37 -154 283.74 -154 212 C-128.59 212 -103.18 212 -77 212 C-77 165.47 -77 118.94 -77 71 C-51.59 71 -26.18 71 0 71 C0 47.57 0 24.14 0 0 Z " fill="#FFFDFD" transform="translate(486,391)"/>
<path d="M0 0 C25.08 0 50.16 0 76 0 C76 23.43 76 46.86 76 71 C101.41 71 126.82 71 153 71 C153 94.1 153 117.2 153 141 C178.08 141 203.16 141 229 141 C229 164.43 229 187.86 229 212 C254.41 212 279.82 212 306 212 C306 235.1 306 258.2 306 282 C331.41 282 356.82 282 383 282 C383 305.43 383 328.86 383 353 C408.08 353 433.16 353 459 353 C459 376.1 459 399.2 459 423 C484.41 423 509.82 423 536 423 C536 446.43 536 469.86 536 494 C485.18 494 434.36 494 382 494 C382 470.57 382 447.14 382 423 C356.92 423 331.84 423 306 423 C306 399.9 306 376.8 306 353 C280.59 353 255.18 353 229 353 C229 329.57 229 306.14 229 282 C203.92 282 178.84 282 153 282 C153 258.9 153 235.8 153 212 C127.59 212 102.18 212 76 212 C76 188.57 76 165.14 76 141 C50.92 141 25.84 141 0 141 C0 94.47 0 47.94 0 0 Z " fill="#0F1116" transform="translate(333,1307)"/>
<path d="M0 0 C25.41 0 50.82 0 77 0 C77 23.1 77 46.2 77 70 C102.41 70 127.82 70 154 70 C154 93.43 154 116.86 154 141 C128.59 141 103.18 141 77 141 C77 164.43 77 187.86 77 212 C51.92 212 26.84 212 1 212 C1 235.1 1 258.2 1 282 C-49.82 282 -100.64 282 -153 282 C-153 235.47 -153 188.94 -153 141 C-127.59 141 -102.18 141 -76 141 C-76 117.57 -76 94.14 -76 70 C-50.92 70 -25.84 70 0 70 C0 46.9 0 23.8 0 0 Z " fill="#FFFEFE" transform="translate(1405,321)"/>
<path d="M0 0 C25.41 0 50.82 0 77 0 C77 163.02 77 326.04 77 494 C51.59 494 26.18 494 0 494 C0 330.98 0 167.96 0 0 Z " fill="#0F1116" transform="translate(1942,532)"/>
<path d="M0 0 C25.41 0 50.82 0 77 0 C77 46.86 77 93.72 77 142 C51.59 142 26.18 142 0 142 C0 95.14 0 48.28 0 0 Z " fill="#FFFCFC" transform="translate(256,884)"/>
<path d="M0 0 C50.82 0 101.64 0 154 0 C154 23.43 154 46.86 154 71 C103.18 71 52.36 71 0 71 C0 47.57 0 24.14 0 0 Z " fill="#FFFDFD" transform="translate(1022,673)"/>
<path d="M0 0 C25.08 0 50.16 0 76 0 C76 46.53 76 93.06 76 141 C50.92 141 25.84 141 0 141 C0 94.47 0 47.94 0 0 Z " fill="#0F1116" transform="translate(1866,391)"/>
<path d="M0 0 C25.08 0 50.16 0 76 0 C76 46.2 76 92.4 76 140 C50.92 140 25.84 140 0 140 C0 93.8 0 47.6 0 0 Z " fill="#0F1116" transform="translate(256,1167)"/>
</svg>
